<svg width="389" height="485" viewBox="0 0 389 485" fill="none" xmlns="http://www.w3.org/2000/svg">
<g clip-path="url(#clip0_704_22)">
<path fill-rule="evenodd" clip-rule="evenodd" d="M388.934 459.636C388.934 466.682 386.094 472.99 381.504 477.574C376.932 482.149 370.62 485 363.691 485H25.356C18.4278 485 11.9918 482.149 7.42981 477.574C2.83942 472.99 0 466.682 0 459.636V25.3643C0 18.3081 2.83942 12.0002 7.42981 7.41608C11.9918 2.84141 18.2953 0 25.356 0H243.073C247.398 0 251.364 1.97004 253.948 5.19978L378.74 126.784C384.675 128.394 389 133.963 389 140.394C389 246.814 388.934 353.168 388.934 459.636ZM194.244 233.365C195.948 226.044 203.274 221.488 210.599 223.183C217.916 224.888 222.468 232.219 220.765 239.55L191.244 366.03C189.55 373.361 182.224 377.917 174.899 376.212C167.582 374.507 163.03 367.176 164.733 359.855L194.244 233.365ZM258.851 355.223C253.2 360.158 244.616 359.59 239.675 353.935C234.735 348.29 235.312 339.7 240.953 334.756L280.932 299.702L240.953 264.649C235.312 259.705 234.735 251.114 239.675 245.46C244.616 239.815 253.2 239.237 258.851 244.181L310.396 289.378C310.878 289.795 311.342 290.25 311.777 290.752C316.708 296.397 316.141 304.987 310.49 309.931L258.851 355.223ZM148.047 334.756C153.688 339.7 154.265 348.29 149.325 353.935C144.384 359.59 135.8 360.158 130.149 355.223L78.5099 309.931C72.8594 304.987 72.2915 296.397 77.2321 290.752C77.658 290.25 78.1218 289.795 78.6045 289.378L130.149 244.181C135.8 239.237 144.384 239.815 149.325 245.46C154.265 251.114 153.688 259.705 148.047 264.649L108.068 299.702L148.047 334.756ZM360.682 157.357H243.073C235.16 157.357 228.847 150.917 228.847 143.122V28.2057H28.3279V456.662H360.719C360.719 356.862 360.682 257.147 360.682 157.357ZM257.175 49.6205L341.885 129.009H257.175V49.6205Z" fill="#02292E" fill-opacity="0.09"/>
</g>
<defs>
<clipPath id="clip0_704_22">
<rect width="389" height="485" fill="white"/>
</clipPath>
</defs>
</svg>
