<svg width="45" height="45" viewBox="0 0 45 45" fill="none" xmlns="http://www.w3.org/2000/svg">
<g clip-path="url(#clip0_668_248)">
<path d="M32.0631 0C30.3756 0 28.5475 0.28125 26.86 0.703125H26.7193C25.5943 0.5625 24.61 0.421875 23.485 0.421875C21.235 0.421875 19.4068 0.984375 17.86 1.82812C16.3131 1.26562 13.2193 0.421875 9.98497 0.5625C7.73497 0.703125 5.20372 1.40625 3.3756 3.375C1.54747 5.34375 0.563095 8.4375 0.844345 12.5156C0.844345 13.6406 1.26622 15.4688 1.82872 17.8594C2.39122 20.25 3.09435 23.0625 4.07872 25.5938C5.0631 28.125 6.04747 30.5156 7.73497 32.0625C8.57872 32.9062 9.70372 33.4688 10.9693 33.4688C11.9537 33.4688 12.6568 33.0469 13.5006 32.4844C13.7818 32.9062 14.2037 33.1875 14.6256 33.3281C15.0475 33.6094 15.4693 33.75 15.8912 33.8906C16.735 34.0312 18.0006 34.3125 19.5475 34.0312C20.11 33.8906 20.6725 33.75 21.235 33.4688C21.235 34.0312 21.235 34.7344 21.235 35.2969C21.3756 37.2656 21.3756 39.0938 21.9381 40.6406C22.0787 40.9219 22.36 42.1875 23.3443 43.4531C24.3287 44.5781 26.2975 45.2812 28.5475 44.8594C30.0943 44.5781 32.2037 43.875 33.4693 42.0469C34.735 40.2188 35.4381 37.4062 35.5787 33.0469C35.5787 32.7656 35.5787 32.625 35.7193 32.4844H36.0006C37.6881 32.625 39.5162 32.3438 41.0631 31.6406C42.4693 31.0781 43.4537 30.375 44.1568 29.25C44.2975 28.9687 44.5787 28.6875 44.5787 27.9844C44.5787 27.4219 44.2975 26.4375 43.735 26.0156C42.61 25.1719 41.9068 25.4531 41.2037 25.5938C40.5006 25.7344 39.6568 25.875 38.9537 25.875C41.0631 22.2188 42.61 18.2812 43.5943 14.9063C44.1568 12.9375 44.4381 10.9688 44.4381 9.42188C44.4381 7.73437 44.2975 6.32812 43.3131 5.0625C40.0787 1.125 35.7193 0 32.485 0C32.3443 0 32.2037 0 32.0631 0ZM32.0631 1.26562C35.1568 1.26562 39.235 2.10938 42.0475 5.76562C42.7506 6.60938 42.8912 7.73438 42.8912 9.28125C42.8912 10.8281 42.61 12.5156 42.0475 14.4844C41.0631 18.2812 39.235 22.6406 36.5631 26.7188C36.7037 26.7188 36.7037 26.8594 36.8443 26.8594C37.4068 27.1406 38.6725 27.2812 41.0631 26.7188C41.6256 26.5781 42.1881 26.4375 42.61 26.8594C42.8912 27 43.0318 27.2813 42.8912 27.7031C42.8912 27.9844 42.7506 28.125 42.61 28.2656C42.1881 28.9688 41.2037 29.6719 39.9381 30.2344C38.8131 30.7969 37.2662 30.9375 36.0006 30.9375C35.2975 30.9375 34.735 30.9375 34.1725 30.6562C34.0318 32.625 33.4693 36.5625 33.1881 38.3906C32.9068 39.7969 32.485 40.9219 31.6412 41.9062C30.7975 42.75 29.6725 43.3125 28.1256 43.5938C26.1568 44.0156 24.7506 43.5938 23.9068 42.75C23.0631 41.9062 22.6412 40.9219 22.36 40.3594C22.2193 39.9375 22.0787 39.375 22.0787 38.6719C21.9381 37.9688 21.9381 36.9844 21.9381 36C21.9381 34.4531 21.7975 32.9062 21.9381 31.2188C21.0943 31.9219 20.11 32.4844 18.985 32.625C17.7193 32.9062 16.5943 32.625 15.8912 32.4844C15.61 32.3438 15.1881 32.2031 14.9068 32.0625C14.6256 31.9219 14.3443 31.6406 14.0631 31.3594C13.9225 31.0781 13.9225 30.9375 13.9225 30.6562C13.9225 30.375 14.0631 30.2344 14.3443 30.0938C14.7662 29.8125 15.1881 29.6719 15.8912 29.5312C17.2975 29.25 17.7193 29.1094 18.0006 28.8281C18.2818 28.6875 18.5631 28.2656 18.985 27.7031C18.985 27.7031 18.985 27.7031 18.985 27.5625C18.1412 27.5625 17.2975 27.2812 16.4537 26.8594C16.1725 27.1406 14.7662 28.6875 12.9381 30.7969C12.235 31.6406 11.3912 32.2031 10.5475 32.2031C9.70372 32.2031 8.85997 31.7813 8.29747 31.2188C7.03185 29.9531 5.90684 27.7031 5.06309 25.1719C4.21934 22.6406 3.3756 19.9688 2.8131 17.5781C2.2506 15.1875 1.96935 13.3594 1.96935 12.375C1.82872 8.4375 2.67247 5.90625 4.21934 4.21875C5.76622 2.53125 7.87559 1.96875 9.98497 1.82812C13.7818 1.54687 17.2975 2.95312 18.0006 3.23438C19.4068 2.25 21.235 1.6875 23.485 1.6875C24.61 1.6875 25.5943 1.82812 26.5787 2.10938C27.0006 1.96875 27.5631 1.82813 27.985 1.6875C29.3912 1.40625 30.6568 1.26562 32.0631 1.26562ZM32.3443 2.39062H32.0631C30.9381 2.39062 29.9537 2.53125 28.8287 2.8125C31.2193 3.79688 32.9068 5.48438 34.1725 7.03125C35.0162 8.15625 35.7193 9.28125 36.2818 10.6875C36.5631 11.25 36.7037 11.6719 36.7037 11.9531C36.7037 12.0938 36.7037 12.2344 36.8443 12.375C36.8443 12.5156 36.8443 12.5156 36.8443 12.6562C36.8443 14.3438 36.5631 15.4688 36.4225 17.0156C36.4225 18.1406 36.7037 19.5469 36.7037 20.9531C36.7037 22.3594 36.5631 23.7656 35.7193 25.3125C35.86 25.4531 35.86 25.4531 36.0006 25.5938C38.3912 21.9375 40.0787 17.8594 40.9225 14.3438C41.3443 12.5156 41.6256 10.6875 41.6256 9.42188C41.6256 8.01562 41.3443 7.03125 41.0631 6.75C38.5318 3.23438 35.1568 2.53125 32.3443 2.39062ZM23.3443 2.95312C21.0943 2.95312 19.5475 3.65625 18.2818 4.64062C17.0162 5.625 16.1725 7.03125 15.7506 8.57812C15.0475 10.2656 14.9068 11.9531 14.7662 13.0781C15.4693 12.6562 16.3131 12.2344 17.2975 12.0938C18.2818 11.8125 19.2662 11.8125 20.11 12.2344C21.0943 12.5156 21.7975 13.3594 22.0787 14.625C23.3443 20.6719 21.6568 23.0625 21.0943 24.75C20.8131 25.3125 20.6725 26.0156 20.5318 26.5781C20.6725 26.5781 20.6725 26.5781 20.8131 26.5781C21.235 26.5781 21.6568 26.7188 21.7975 26.7188C22.5006 27 22.9225 27.5625 23.0631 28.125C23.0631 28.2656 23.2037 28.4062 23.2037 28.6875C23.2037 28.8281 23.2037 28.8281 23.2037 28.9688C23.0631 31.3594 23.2037 33.6094 23.2037 36C23.2037 36.9844 23.3443 37.8281 23.3443 38.5312C23.485 39.2344 23.485 39.7969 23.6256 39.9375C23.9068 40.5 24.1881 41.3438 24.8912 41.9062C25.4537 42.4688 26.4381 42.75 28.1256 42.4688C29.5318 42.1875 30.5162 41.7656 31.0787 41.0625C31.6412 40.5 32.0631 39.5156 32.2037 38.25C32.485 36.2812 33.1881 30.5156 33.3287 29.5312C33.3287 28.6875 33.4693 28.125 33.61 27.5625C33.8912 27.1406 34.3131 26.7188 34.5943 26.5781C34.735 26.4375 34.8756 26.4375 35.0162 26.4375C34.8756 26.2969 34.735 26.0156 34.5943 25.875C34.1725 25.3125 33.7506 24.6094 33.4693 23.9062C33.3287 23.625 33.1881 23.3438 33.0475 23.0625C32.7662 22.6406 32.485 22.0781 32.2037 21.375C31.5006 20.1094 30.7975 18.5625 30.5162 17.0156C30.0943 15.4688 30.0943 13.9219 31.0787 12.9375C31.9225 11.9531 33.4693 11.5312 35.5787 11.8125C35.5787 11.6719 35.4381 11.3906 35.2975 11.25C34.735 10.125 34.1725 9 33.3287 7.875C31.5006 5.48438 28.4068 3.09375 23.6256 2.95312H23.3443ZM10.8287 3.09375C10.5475 3.09375 10.4068 3.09375 10.1256 3.09375C8.29747 3.23438 6.46934 3.65625 5.20372 5.0625C3.9381 6.46875 3.09435 8.57812 3.23497 12.375C3.23497 13.0781 3.51622 15.0469 4.07872 17.2969C4.64122 19.6875 5.34435 22.3594 6.1881 24.75C7.03184 27.1406 8.15685 29.25 9.14122 30.2344C9.70372 30.6562 10.1256 30.9375 10.5475 30.9375C10.9693 30.9375 11.3912 30.6562 12.0943 29.9531C13.2193 28.6875 14.3443 27.4219 15.4693 26.1562C13.7818 24.75 12.9381 22.5 13.2193 20.25C13.36 18.8438 13.5006 17.5781 13.36 16.5938C13.36 15.6094 13.2193 14.9062 13.2193 14.4844C13.2193 12.375 13.6412 10.125 14.3443 8.15625C14.9068 6.75 15.61 5.34375 16.8756 4.21875C15.7506 3.79688 13.6412 3.23438 11.5318 3.09375C11.3912 3.09375 11.11 3.09375 10.8287 3.09375ZM34.1725 12.9375C32.9068 12.9375 32.2037 13.3594 31.7818 13.7812C31.2193 14.3438 31.2193 15.4687 31.5006 16.7344C31.7818 18 32.485 19.5469 33.1881 20.8125C33.4693 21.375 33.7506 21.9375 34.0318 22.3594C34.3131 22.7812 34.4537 23.0625 34.5943 23.3438C34.735 23.625 34.8756 23.7656 34.8756 24.0469C35.2975 23.0625 35.4381 21.9375 35.4381 20.9531C35.4381 19.6875 35.0162 18.2812 35.1568 16.875C35.1568 15.3281 35.5787 14.2031 35.5787 12.9375C35.0162 12.9375 34.5943 12.9375 34.1725 12.9375ZM18.7037 13.2187C18.2818 13.2187 17.86 13.2188 17.5787 13.3594C16.8756 13.5 16.0318 13.7813 15.4693 14.2031C15.1881 14.3438 15.0475 14.4844 14.7662 14.625C14.7662 14.9062 14.7662 15.6094 14.9068 16.5938C14.9068 17.7188 14.9068 18.9844 14.7662 20.5312C14.3443 23.7656 16.5943 26.4375 19.4068 26.4375C19.5475 25.7344 19.8287 25.1719 20.11 24.4688C20.8131 22.3594 22.36 20.9531 21.0943 15.0469C20.9537 14.0625 20.5318 13.6406 19.9693 13.5C19.4068 13.2188 18.985 13.0781 18.7037 13.2187ZM33.4693 13.5C33.7506 13.5 33.7506 13.5 33.8912 13.5C34.0318 13.5 34.0318 13.5 34.1725 13.6406C34.3131 13.6406 34.3131 13.7812 34.3131 13.7812C34.3131 13.9219 34.3131 13.9219 34.3131 14.0625C34.3131 14.2031 34.1725 14.2031 34.1725 14.3438C34.0318 14.625 33.7506 14.7656 33.4693 14.7656C33.1881 14.7656 32.9068 14.7656 32.7662 14.625C32.6256 14.625 32.6256 14.4844 32.485 14.3438C32.485 14.3438 32.3443 14.2031 32.3443 14.0625C32.3443 13.9219 32.3443 13.9219 32.485 13.7812C32.485 13.7812 32.6256 13.6406 32.7662 13.6406C32.9068 13.5 33.1881 13.5 33.4693 13.3594C33.3287 13.5 33.4693 13.5 33.4693 13.5ZM18.8443 13.7812C18.985 13.7812 18.985 13.7812 19.1256 13.7812C19.4068 13.7812 19.6881 13.9219 19.8287 14.0625C19.9693 14.0625 19.9693 14.2031 20.11 14.2031C20.2506 14.3438 20.2506 14.3438 20.2506 14.4844C20.2506 14.625 20.2506 14.7656 20.11 14.7656C19.9693 14.9062 19.9693 14.9062 19.8287 15.0469C19.5475 15.1875 19.2662 15.3281 18.985 15.3281C18.7037 15.3281 18.4225 15.1875 18.1412 14.9063C18.0006 14.7656 18.0006 14.7656 17.86 14.625C17.86 14.4844 17.7193 14.3438 17.7193 14.3438C17.7193 14.2031 17.86 14.0625 18.1412 13.9219C18.4225 13.9219 18.7037 13.9219 18.8443 13.7812ZM35.86 27.5625C35.5787 27.7031 35.2975 27.7031 35.1568 27.8437C35.0162 27.9844 34.735 28.125 34.735 28.2656C34.5943 28.5469 34.4537 28.8281 34.5943 29.5312C34.735 29.5312 34.735 29.6719 34.8756 29.6719C35.1568 29.8125 35.7193 29.8125 36.2818 29.8125C37.4068 29.8125 38.9537 29.5313 39.7975 29.1094C40.5006 28.8281 41.0631 28.4062 41.6256 27.9844C38.9537 28.5469 37.5475 28.4062 36.5631 27.9844C36.2818 27.8438 36.0006 27.8438 35.86 27.5625ZM20.8131 27.8437C20.6725 27.8437 20.5318 27.8438 20.2506 28.2656C19.5475 28.9688 19.4068 29.3906 18.8443 29.9531C18.2818 30.375 17.5787 30.6562 16.1725 30.9375C15.7506 30.7969 15.4693 30.9375 15.3287 30.9375C15.3287 30.9375 15.3287 30.9375 15.4693 31.0781C15.61 31.2188 15.8912 31.3594 16.1725 31.3594C16.735 31.5 17.7193 31.6406 18.8443 31.5C19.8287 31.3594 20.9537 30.7969 21.7975 29.5312C21.9381 29.25 21.9381 28.9688 21.7975 28.6875C21.6568 28.4062 21.3756 27.9844 21.235 27.9844C21.0943 27.8438 20.9537 27.8437 20.8131 27.8437Z" fill="#464646"/>
</g>
<defs>
<clipPath id="clip0_668_248">
<rect width="45" height="45" fill="white"/>
</clipPath>
</defs>
</svg>
