<svg width="50" height="50" viewBox="0 0 50 50" fill="none" xmlns="http://www.w3.org/2000/svg">
<path d="M41.7879 34.1351C36.7682 40.8219 26.0497 38.5652 19.1758 38.8885C19.1758 38.8885 17.958 38.9576 16.7341 39.1589C16.7341 39.1589 17.1976 38.9617 17.7892 38.7563C22.6158 37.0871 24.8969 36.7517 27.8307 35.2452C33.3404 32.4232 38.8257 26.2731 39.9419 19.8851C37.8437 26.0291 31.4639 31.3172 25.6553 33.4642C21.6806 34.9321 14.4875 36.3593 14.4875 36.3593C14.4916 36.3634 14.2008 36.2088 14.1968 36.2048C9.30716 33.8261 9.16485 23.2336 18.0474 19.8201C21.9429 18.3237 25.6655 19.1451 29.876 18.1427C34.3651 17.0754 39.5657 13.7106 41.6781 9.31097C44.0467 16.3414 46.893 27.3364 41.7879 34.1351ZM41.8733 7.13556C41.2776 8.55466 40.5477 9.83348 39.7081 10.9781C36.0099 7.18232 30.8458 4.8158 25.1369 4.8158C13.9081 4.8158 4.77539 13.9485 4.77539 25.1752C4.77539 31.061 7.28626 36.3674 11.2915 40.086L11.7387 40.4804C10.9946 39.8745 10.8787 38.7807 11.4826 38.0346C12.0905 37.2884 13.1843 37.1746 13.9284 37.7784C14.6745 38.3843 14.7904 39.4801 14.1846 40.2262C13.5828 40.9724 12.4869 41.0862 11.7408 40.4824L12.0437 40.7508C15.5854 43.7354 20.1517 45.5367 25.1369 45.5367C35.8675 45.5367 44.681 37.1847 45.4353 26.6452C45.9924 21.4831 44.4675 14.9284 41.8733 7.13556Z" fill="#464646"/>
</svg>
