<svg width="44" height="44" viewBox="0 0 44 44" fill="none" xmlns="http://www.w3.org/2000/svg">
<g clip-path="url(#clip0_668_236)">
<path d="M43.2993 19.7008L34.6891 4.80253C33.9438 3.509 32.1104 2.44666 30.6112 2.44666H13.4085C11.9177 2.44666 10.0758 3.509 9.3306 4.80253L0.728991 19.7008C-0.0164345 20.9944 -0.0164345 23.1103 0.728991 24.404L9.33042 39.3107C10.0757 40.6044 11.9091 41.6668 13.4083 41.6668H30.6196C32.1104 41.6668 33.9435 40.6044 34.6975 39.3109L43.2989 24.4042C44.0443 23.1105 44.0447 20.9944 43.2993 19.7008ZM20.1506 10.6882C20.1506 9.7116 20.9474 8.91484 21.924 8.91484C22.9006 8.91484 23.6974 9.7116 23.6974 10.6882V21.2856C23.6974 22.2624 22.9006 23.059 21.924 23.059C20.9474 23.059 20.1506 22.2624 20.1506 21.2856V10.6882ZM21.924 33.3138C15.2931 33.3138 9.89581 27.9165 9.89581 21.2856C9.90437 17.4819 11.7034 13.9095 14.7534 11.6306C14.9197 11.5063 15.1089 11.4162 15.3102 11.3653C15.5114 11.3144 15.7207 11.3037 15.9261 11.334C16.1315 11.3642 16.3289 11.4347 16.5069 11.5415C16.685 11.6483 16.8402 11.7891 16.9636 11.9561C17.0879 12.1224 17.1781 12.3116 17.229 12.5129C17.2799 12.7142 17.2906 12.9235 17.2603 13.1289C17.2301 13.3343 17.1595 13.5317 17.0528 13.7098C16.946 13.8879 16.8051 14.0431 16.6381 14.1665C12.7059 17.0878 11.8834 22.6478 14.8047 26.5801C17.7261 30.5125 23.2862 31.3348 27.2184 28.4135C29.4717 26.743 30.7996 24.0957 30.7996 21.2856C30.7959 19.8953 30.467 18.525 29.8393 17.2845C29.2115 16.0439 28.3023 14.9673 27.1842 14.1408C26.4816 13.6268 26.3359 12.6329 26.85 11.9304C27.3641 11.2277 28.3578 11.0821 29.0604 11.5964C32.1359 13.8665 33.9437 17.4647 33.9522 21.2856C33.9522 27.9251 28.5549 33.3138 21.924 33.3138Z" fill="#464646"/>
</g>
<defs>
<clipPath id="clip0_668_236">
<rect width="43.6879" height="43.6879" fill="white" transform="translate(0.169922 0.212769)"/>
</clipPath>
</defs>
</svg>
